<?xml version="1.0" encoding="UTF-8" standalone="no"?>
<svg
   xmlns:dc="http://purl.org/dc/elements/1.1/"
   xmlns:cc="http://creativecommons.org/ns#"
   xmlns:rdf="http://www.w3.org/1999/02/22-rdf-syntax-ns#"
   xmlns:svg="http://www.w3.org/2000/svg"
   xmlns="http://www.w3.org/2000/svg"
   version="1.1"
   id="svg2"
   viewBox="0 0 106.24023 106.29883"
   height="1.1810981in"
   width="1.180447in">
  <defs
     id="defs4" />
  <metadata
     id="metadata7">
    <rdf:RDF>
      <cc:Work
         rdf:about="">
        <dc:format>image/svg+xml</dc:format>
        <dc:type
           rdf:resource="http://purl.org/dc/dcmitype/StillImage" />
        <dc:title></dc:title>
        <dc:creator>
          <cc:Agent>
            <dc:title>Michael Pilgrem</dc:title>
          </cc:Agent>
        </dc:creator>
        <cc:license
           rdf:resource="http://creativecommons.org/publicdomain/zero/1.0/" />
      </cc:Work>
      <cc:License
         rdf:about="http://creativecommons.org/publicdomain/zero/1.0/">
        <cc:permits
           rdf:resource="http://creativecommons.org/ns#Reproduction" />
        <cc:permits
           rdf:resource="http://creativecommons.org/ns#Distribution" />
        <cc:permits
           rdf:resource="http://creativecommons.org/ns#DerivativeWorks" />
      </cc:License>
    </rdf:RDF>
  </metadata>
  <g
     transform="translate(-0.02929688,0.77548984)"
     style="display:inline"
     id="layer2">
    <g
       id="g4390">
      <path
         style="opacity:1;fill:#000000;fill-opacity:1;stroke:none;stroke-width:0.05915201;stroke-linecap:round;stroke-linejoin:miter;stroke-miterlimit:4;stroke-dasharray:none;stroke-dashoffset:0;stroke-opacity:1"
         d="m 0.02929688,52.402244 c 5e-6,29.337398 23.78371612,53.121096 53.12109412,53.121096 29.337376,0 53.119139,-23.783698 53.119139,-53.121096 l -2.13086,0 a 50.995225,50.995225 0 0 1 0.006,0.175782 50.995225,50.995225 0 0 1 -50.994139,50.994144 50.995225,50.995225 0 0 1 -50.9960941,-50.994144 50.995225,50.995225 0 0 1 0.00781,-0.175782 l -2.13281252,0 z"
         id="path4262" />
      <path
         style="opacity:1;fill:#505050;fill-opacity:1;stroke:none;stroke-width:0.05915201;stroke-linecap:round;stroke-linejoin:miter;stroke-miterlimit:4;stroke-dasharray:none;stroke-dashoffset:0;stroke-opacity:1"
         d="m 53.150391,-0.77548984 c -29.337378,0 -53.12108912,23.78174184 -53.12109412,53.11914084 l 2.13671872,0 A 50.995225,50.995225 0 0 1 53.150391,1.5819321 50.995225,50.995225 0 0 1 104.13672,52.343651 l 2.13281,0 c 0,-29.337399 -23.781763,-53.11914084 -53.119139,-53.11914084 z"
         id="path4149" />
      <path
         style="opacity:1;fill:#000000;fill-opacity:1;stroke:none;stroke-width:0.04176787;stroke-linecap:round;stroke-linejoin:miter;stroke-miterlimit:4;stroke-dasharray:none;stroke-dashoffset:0;stroke-opacity:1"
         d="m 53.148437,5.7786107 c -5.816331,-6e-7 -10.532744,4.6824043 -10.601563,10.4824223 l 1.607422,0 c 0.06939,-4.918634 4.075019,-8.8703352 8.994141,-8.8730473 4.919883,0.00164 8.926696,3.9536533 8.996094,8.8730473 l 1.607421,0 C 63.683134,10.461015 58.964766,5.7786107 53.148437,5.7786107 Z"
         id="circle4283" />
      <path
         id="circle4345"
         style="opacity:1;fill:#303030;fill-opacity:1;stroke:none;stroke-width:0.03543307;stroke-linecap:round;stroke-linejoin:miter;stroke-miterlimit:4;stroke-dasharray:none;stroke-dashoffset:0;stroke-opacity:1"
         d="m 62.149314,88.607681 a 8.999999,8.999999 0 0 0 -8.999999,-8.999999 8.999999,8.999999 0 0 0 -8.999999,8.999999 8.999999,8.999999 0 0 0 8.999999,8.999999 8.999999,8.999999 0 0 0 8.999999,-8.999999 z m 0,-72.183908 a 8.999999,8.999999 0 0 0 -8.999999,-8.9999992 8.999999,8.999999 0 0 0 -8.999999,8.9999992 8.999999,8.999999 0 0 0 8.999999,8.999999 8.999999,8.999999 0 0 0 8.999999,-8.999999 z M 104.14483,52.577297 A 50.995228,50.995228 0 0 1 53.149601,103.57253 50.995228,50.995228 0 0 1 2.1543732,52.577297 50.995228,50.995228 0 0 1 53.149601,1.5820694 50.995228,50.995228 0 0 1 104.14483,52.577297 Z" />
      <path
         id="path4296"
         d="m 53.148437,26.785321 c -5.816331,1e-6 -10.532744,-4.682404 -10.601563,-10.482421 l 1.607422,0 c 0.06939,4.918633 4.075019,8.870334 8.994141,8.873046 4.919883,-0.0016 8.926696,-3.953653 8.996094,-8.873046 l 1.607421,0 c -0.06882,5.800017 -4.787186,10.482421 -10.603515,10.482421 z"
         style="opacity:1;fill:#505050;fill-opacity:1;stroke:none;stroke-width:0.04176787;stroke-linecap:round;stroke-linejoin:miter;stroke-miterlimit:4;stroke-dasharray:none;stroke-dashoffset:0;stroke-opacity:1" />
      <path
         id="path4349"
         d="m 53.148437,77.962521 c -5.816331,-10e-7 -10.532744,4.682404 -10.601563,10.482422 l 1.607422,0 c 0.06939,-4.918634 4.075019,-8.870335 8.994141,-8.873047 4.919883,0.0016 8.926696,3.953653 8.996094,8.873047 l 1.607421,0 C 63.683134,82.644925 58.964766,77.962521 53.148437,77.962521 Z"
         style="opacity:1;fill:#000000;fill-opacity:1;stroke:none;stroke-width:0.04176787;stroke-linecap:round;stroke-linejoin:miter;stroke-miterlimit:4;stroke-dasharray:none;stroke-dashoffset:0;stroke-opacity:1" />
      <path
         style="opacity:1;fill:#505050;fill-opacity:1;stroke:none;stroke-width:0.04176787;stroke-linecap:round;stroke-linejoin:miter;stroke-miterlimit:4;stroke-dasharray:none;stroke-dashoffset:0;stroke-opacity:1"
         d="m 53.148437,98.969231 c -5.816331,1e-6 -10.532744,-4.682404 -10.601563,-10.482421 l 1.607422,0 c 0.06939,4.918633 4.075019,8.870334 8.994141,8.873046 4.919883,-0.0016 8.926696,-3.953653 8.996094,-8.873046 l 1.607421,0 c -0.06882,5.800017 -4.787186,10.482421 -10.603515,10.482421 z"
         id="path4351" />
    </g>
    <g
       style="stroke:none"
       id="g4264" />
  </g>
  <g
     transform="translate(-0.02929688,0.77548984)"
     style="display:inline"
     id="layer3">
    <path
       id="ellipse4159"
       d="m 53.165751,25.48328 a 26.890892,26.890015 0 0 0 -24.464845,15.8125 l 3.373047,0 A 23.839397,23.838621 0 0 1 53.165751,28.53598 23.839397,23.838621 0 0 1 74.2595,41.29578 l 3.380859,0 A 26.890892,26.890015 0 0 0 53.165751,25.48328 Z m -23.753908,39.4649 a 26.890892,26.890015 0 0 0 23.753908,14.3164 26.890892,26.890015 0 0 0 23.748045,-14.3164 l -3.527343,0 a 23.839397,23.838621 0 0 1 -20.220702,11.2636 23.839397,23.838621 0 0 1 -20.23633,-11.2636 l -3.517578,0 z"
       style="opacity:1;fill:#404040;fill-opacity:1;stroke:none;stroke-width:0.03996671;stroke-linecap:round;stroke-linejoin:miter;stroke-miterlimit:4;stroke-dasharray:none;stroke-dashoffset:0;stroke-opacity:1" />
    <path
       id="ellipse4199"
       d="m 99.434437,51.7874 c -10e-7,3.9272 -3.331055,6.2744 -7.242584,7.1109 l -11.92345,2.5498 -11.269049,-2.9758 -0.02583,-11.9767 10.23937,-3.196 12.978959,1.3769 c 3.977647,0.422 7.242583,3.1837 7.242584,7.1109 z"
       style="opacity:1;fill:#8c8c8c;fill-opacity:1;stroke:#74dd0b;stroke-width:0.03543307;stroke-linecap:round;stroke-linejoin:miter;stroke-miterlimit:4;stroke-dasharray:none;stroke-dashoffset:0;stroke-opacity:1" />
    <g
       transform="translate(131.38092,-1000.3901)"
       id="g4508">
      <ellipse
         ry="7.1109009"
         rx="7.2425842"
         cy="1052.1774"
         cx="-39.189041"
         id="ellipse4510"
         style="opacity:1;fill:#8c8c8c;fill-opacity:1;stroke:none;stroke-width:0.2;stroke-linecap:round;stroke-linejoin:miter;stroke-miterlimit:4;stroke-dasharray:none;stroke-dashoffset:0;stroke-opacity:1" />
      <path
         style="opacity:0.2;fill:#ffffff;fill-opacity:1;stroke:none;stroke-width:0.2;stroke-linecap:round;stroke-linejoin:miter;stroke-miterlimit:4;stroke-dasharray:none;stroke-dashoffset:0;stroke-opacity:1"
         d="m 14.191406,44.324219 c -3.999984,2.15e-4 -7.2424277,3.184071 -7.2421872,7.111328 0.00127,0.677799 0.101244,0.249335 0.296875,0.899351 0.9029624,-3.028742 3.7310462,-5.224374 6.9453122,-5.22682 3.214267,0.0024 6.04235,2.198078 6.945313,5.22682 0.195631,-0.650016 0.295601,-0.221552 0.296875,-0.899351 2.4e-4,-3.927257 -3.242204,-7.111113 -7.242188,-7.111328 z"
         transform="translate(-53.38089,1000.7419)"
         id="path4512" />
      <path
         style="opacity:0.2;fill:#000000;fill-opacity:1;stroke:none;stroke-width:0.2;stroke-linecap:round;stroke-linejoin:miter;stroke-miterlimit:4;stroke-dasharray:none;stroke-dashoffset:0;stroke-opacity:1"
         d="m 7.2460938,50.459058 c -0.1952561,0.64876 -0.2952221,0.299999 -0.296875,0.976489 -2.405e-4,3.927257 3.2422032,7.111113 7.2421872,7.111328 3.999984,-2.15e-4 7.242428,-3.184071 7.242188,-7.111328 -0.0017,-0.67649 -0.101619,-0.327729 -0.296875,-0.976489 -0.904418,3.027194 -3.73215,5.423635 -6.945313,5.425572 -3.213163,-0.0019 -6.0408944,-2.398378 -6.9453122,-5.425572 z"
         transform="translate(-53.38089,1000.7419)"
         id="path4514" />
      <path
         style="opacity:1;fill:#8c8c8c;fill-opacity:1;stroke:none;stroke-width:0.2;stroke-linecap:round;stroke-linejoin:miter;stroke-miterlimit:4;stroke-dasharray:none;stroke-dashoffset:0;stroke-opacity:1"
         d="m 14.191406,44.324219 a 7.2425838,7.1109005 0 0 0 -1.416015,0.144531 l 0,13.939453 a 7.2425838,7.1109005 0 0 0 1.416015,0.138672 7.2425838,7.1109005 0 0 0 1.417969,-0.144531 l 0,-13.939453 a 7.2425838,7.1109005 0 0 0 -1.417969,-0.138672 z"
         transform="translate(-53.38089,1000.7419)"
         id="path4516" />
      <path
         style="opacity:1;fill:#8c8c8c;fill-opacity:1;stroke:none;stroke-width:0.2;stroke-linecap:round;stroke-linejoin:miter;stroke-miterlimit:4;stroke-dasharray:none;stroke-dashoffset:0;stroke-opacity:1"
         d="m 7.0957031,50.017578 a 7.2425838,7.1109005 0 0 0 -0.1464843,1.417969 7.2425838,7.1109005 0 0 0 0.1523437,1.417969 l 14.1874995,0 a 7.2425838,7.1109005 0 0 0 0.144532,-1.417969 7.2425838,7.1109005 0 0 0 -0.152344,-1.417969 l -14.1855469,0 z"
         transform="translate(-53.38089,1000.7419)"
         id="path4518" />
      <path
         style="opacity:0.2;fill:#000000;fill-opacity:1;stroke:none;stroke-width:0.2;stroke-linecap:round;stroke-linejoin:miter;stroke-miterlimit:4;stroke-dasharray:none;stroke-dashoffset:0;stroke-opacity:1"
         d="m 15.222656,44.40625 0,5.899662 0.386719,-0.288334 0,-5.554687 c -0.128364,-0.02229 -0.257317,-0.04118 -0.386719,-0.05664 z m -2.060547,0.0039 c -0.12942,0.01611 -0.258373,0.03565 -0.386718,0.05859 l 0,5.548828 0.386718,0.299214 z m -0.386718,8.44336 0,5.554687 c 0.128363,0.02229 0.257316,0.04118 0.386718,0.05664 l 0,-5.90961 z m 2.447265,-0.305219 0,5.912641 c 0.12942,-0.01611 0.258374,-0.03565 0.386719,-0.05859 l 0,-5.548828 z"
         transform="translate(-53.38089,1000.7419)"
         id="path4520" />
      <path
         style="opacity:0.2;fill:#000000;fill-opacity:1;stroke:none;stroke-width:0.2;stroke-linecap:round;stroke-linejoin:miter;stroke-miterlimit:4;stroke-dasharray:none;stroke-dashoffset:0;stroke-opacity:1"
         d="m 7.0957031,50.017578 c -0.017072,0.09799 -0.032049,0.196317 -0.044922,0.294922 l 6.1054279,0 -0.380818,-0.294922 z m 8.5136719,0 -0.386258,0.294922 6.105008,0 c -0.01352,-0.09862 -0.02915,-0.196948 -0.04687,-0.294922 z"
         transform="translate(-53.38089,1000.7419)"
         id="path4522" />
      <path
         style="opacity:0.2;fill:#ffffff;fill-opacity:1;stroke:none;stroke-width:0.2;stroke-linecap:round;stroke-linejoin:miter;stroke-miterlimit:4;stroke-dasharray:none;stroke-dashoffset:0;stroke-opacity:1"
         d="m 7.0546875,52.558594 c 0.013522,0.09862 0.02915,0.196948 0.046875,0.294922 l 5.6738285,0 0.381523,-0.294922 z m 8.1870375,0 0.36765,0.294922 5.679687,0 c 0.01707,-0.09799 0.03205,-0.196317 0.04492,-0.294922 z"
         transform="translate(-53.38089,1000.7419)"
         id="path4524" />
    </g>
    <circle
       r="3.049248"
       cy="52.119034"
       cx="79.476753"
       id="circle4208"
       style="opacity:1;fill:#303030;fill-opacity:1;stroke:#74dd0b;stroke-width:0.03543307;stroke-linecap:round;stroke-linejoin:miter;stroke-miterlimit:4;stroke-dasharray:none;stroke-dashoffset:0;stroke-opacity:1" />
    <path
       style="opacity:1;fill:#8c8c8c;fill-opacity:1;stroke:none;stroke-width:0.03543307;stroke-linecap:round;stroke-linejoin:miter;stroke-miterlimit:4;stroke-dasharray:none;stroke-dashoffset:0;stroke-opacity:1"
       d="m 6.906829,51.4355 c 1e-6,3.9272 3.394934,6.0176 7.242584,7.1109 l 12.275286,3.488 10.917213,-2.7412 0.04161,-13.9705 -10.25515,-2.6096 -12.978959,1.6115 c -3.969489,0.4928 -7.242583,3.1837 -7.242584,7.1109 z"
       id="path4202" />
    <circle
       style="opacity:1;fill:#303030;fill-opacity:1;stroke:none;stroke-width:0.03543307;stroke-linecap:round;stroke-linejoin:miter;stroke-miterlimit:4;stroke-dasharray:none;stroke-dashoffset:0;stroke-opacity:1"
       id="circle4206"
       cx="27.007637"
       cy="51.767132"
       r="3.049248" />
    <g
       transform="translate(53.38089,-1000.7419)"
       id="g4498">
      <ellipse
         style="opacity:1;fill:#8c8c8c;fill-opacity:1;stroke:none;stroke-width:0.2;stroke-linecap:round;stroke-linejoin:miter;stroke-miterlimit:4;stroke-dasharray:none;stroke-dashoffset:0;stroke-opacity:1"
         id="path4187"
         cx="-39.189041"
         cy="1052.1774"
         rx="7.2425842"
         ry="7.1109009" />
      <path
         id="ellipse4453"
         transform="translate(-53.38089,1000.7419)"
         d="m 14.191406,44.324219 c -3.999984,2.15e-4 -7.2424277,3.184071 -7.2421872,7.111328 0.00127,0.677799 0.101244,0.249335 0.296875,0.899351 0.9029624,-3.028742 3.7310462,-5.224374 6.9453122,-5.22682 3.214267,0.0024 6.04235,2.198078 6.945313,5.22682 0.195631,-0.650016 0.295601,-0.221552 0.296875,-0.899351 2.4e-4,-3.927257 -3.242204,-7.111113 -7.242188,-7.111328 z"
         style="opacity:0.2;fill:#ffffff;fill-opacity:1;stroke:none;stroke-width:0.2;stroke-linecap:round;stroke-linejoin:miter;stroke-miterlimit:4;stroke-dasharray:none;stroke-dashoffset:0;stroke-opacity:1" />
      <path
         id="ellipse4458"
         transform="translate(-53.38089,1000.7419)"
         d="m 7.2460938,50.459058 c -0.1952561,0.64876 -0.2952221,0.299999 -0.296875,0.976489 -2.405e-4,3.927257 3.2422032,7.111113 7.2421872,7.111328 3.999984,-2.15e-4 7.242428,-3.184071 7.242188,-7.111328 -0.0017,-0.67649 -0.101619,-0.327729 -0.296875,-0.976489 -0.904418,3.027194 -3.73215,5.423635 -6.945313,5.425572 -3.213163,-0.0019 -6.0408944,-2.398378 -6.9453122,-5.425572 z"
         style="opacity:0.2;fill:#000000;fill-opacity:1;stroke:none;stroke-width:0.2;stroke-linecap:round;stroke-linejoin:miter;stroke-miterlimit:4;stroke-dasharray:none;stroke-dashoffset:0;stroke-opacity:1" />
      <path
         id="rect4463"
         transform="translate(-53.38089,1000.7419)"
         d="m 14.191406,44.324219 a 7.2425838,7.1109005 0 0 0 -1.416015,0.144531 l 0,13.939453 a 7.2425838,7.1109005 0 0 0 1.416015,0.138672 7.2425838,7.1109005 0 0 0 1.417969,-0.144531 l 0,-13.939453 a 7.2425838,7.1109005 0 0 0 -1.417969,-0.138672 z"
         style="opacity:1;fill:#8c8c8c;fill-opacity:1;stroke:none;stroke-width:0.2;stroke-linecap:round;stroke-linejoin:miter;stroke-miterlimit:4;stroke-dasharray:none;stroke-dashoffset:0;stroke-opacity:1" />
      <path
         id="ellipse4465"
         transform="translate(-53.38089,1000.7419)"
         d="m 7.0957031,50.017578 a 7.2425838,7.1109005 0 0 0 -0.1464843,1.417969 7.2425838,7.1109005 0 0 0 0.1523437,1.417969 l 14.1874995,0 a 7.2425838,7.1109005 0 0 0 0.144532,-1.417969 7.2425838,7.1109005 0 0 0 -0.152344,-1.417969 l -14.1855469,0 z"
         style="opacity:1;fill:#8c8c8c;fill-opacity:1;stroke:none;stroke-width:0.2;stroke-linecap:round;stroke-linejoin:miter;stroke-miterlimit:4;stroke-dasharray:none;stroke-dashoffset:0;stroke-opacity:1" />
      <path
         id="path4474"
         transform="translate(-53.38089,1000.7419)"
         d="m 15.222656,44.40625 0,5.899662 0.386719,-0.288334 0,-5.554687 c -0.128364,-0.02229 -0.257317,-0.04118 -0.386719,-0.05664 z m -2.060547,0.0039 c -0.12942,0.01611 -0.258373,0.03565 -0.386718,0.05859 l 0,5.548828 0.386718,0.299214 z m -0.386718,8.44336 0,5.554687 c 0.128363,0.02229 0.257316,0.04118 0.386718,0.05664 l 0,-5.90961 z m 2.447265,-0.305219 0,5.912641 c 0.12942,-0.01611 0.258374,-0.03565 0.386719,-0.05859 l 0,-5.548828 z"
         style="opacity:0.2;fill:#000000;fill-opacity:1;stroke:none;stroke-width:0.2;stroke-linecap:round;stroke-linejoin:miter;stroke-miterlimit:4;stroke-dasharray:none;stroke-dashoffset:0;stroke-opacity:1" />
      <path
         id="path4487"
         transform="translate(-53.38089,1000.7419)"
         d="m 7.0957031,50.017578 c -0.017072,0.09799 -0.032049,0.196317 -0.044922,0.294922 l 6.1054279,0 -0.380818,-0.294922 z m 8.5136719,0 -0.386258,0.294922 6.105008,0 c -0.01352,-0.09862 -0.02915,-0.196948 -0.04687,-0.294922 z"
         style="opacity:0.2;fill:#000000;fill-opacity:1;stroke:none;stroke-width:0.2;stroke-linecap:round;stroke-linejoin:miter;stroke-miterlimit:4;stroke-dasharray:none;stroke-dashoffset:0;stroke-opacity:1" />
      <path
         id="path4481"
         transform="translate(-53.38089,1000.7419)"
         d="m 7.0546875,52.558594 c 0.013522,0.09862 0.02915,0.196948 0.046875,0.294922 l 5.6738285,0 0.381523,-0.294922 z m 8.1870375,0 0.36765,0.294922 5.679687,0 c 0.01707,-0.09799 0.03205,-0.196317 0.04492,-0.294922 z"
         style="opacity:0.2;fill:#ffffff;fill-opacity:1;stroke:none;stroke-width:0.2;stroke-linecap:round;stroke-linejoin:miter;stroke-miterlimit:4;stroke-dasharray:none;stroke-dashoffset:0;stroke-opacity:1" />
    </g>
    <circle
       style="opacity:1;fill:#e0e0e0;fill-opacity:1;stroke:none;stroke-width:0.03543307;stroke-linecap:round;stroke-linejoin:miter;stroke-miterlimit:4;stroke-dasharray:none;stroke-dashoffset:0;stroke-opacity:1"
       id="circle4193"
       cx="53.170631"
       cy="52.373932"
       r="17.877924" />
    <circle
       r="14.905681"
       cy="52.373932"
       cx="53.170631"
       id="circle4195"
       style="opacity:1;fill:#dede87;fill-opacity:1;stroke:none;stroke-width:0.02954223;stroke-linecap:round;stroke-linejoin:miter;stroke-miterlimit:4;stroke-dasharray:none;stroke-dashoffset:0;stroke-opacity:1" />
    <g
       id="g4212">
      <ellipse
         cy="52.373932"
         cx="53.170631"
         id="circle4194"
         style="opacity:1;fill:#f1f1d5;fill-opacity:1;stroke:none;stroke-width:0.00955792;stroke-linecap:round;stroke-linejoin:miter;stroke-miterlimit:4;stroke-dasharray:none;stroke-dashoffset:0;stroke-opacity:1"
         rx="5.316792"
         ry="4.3522949" />
      <path
         style="opacity:0.2;fill:#ffffff;fill-opacity:1;stroke:none;stroke-width:0.00955792;stroke-linecap:round;stroke-linejoin:miter;stroke-miterlimit:4;stroke-dasharray:none;stroke-dashoffset:0;stroke-opacity:1"
         d="m 53.169918,48.021385 a 5.316792,4.3522949 0 0 0 -5.316406,4.353516 5.316792,2.7430313 0 0 1 5.316406,-2.744141 5.316792,2.7430313 0 0 1 5.318359,2.744141 5.316792,4.3522949 0 0 0 -5.318359,-4.353516 z"
         id="path4210" />
      <path
         style="opacity:0.2;fill:#000000;fill-opacity:1;stroke:none;stroke-width:0.00955792;stroke-linecap:round;stroke-linejoin:miter;stroke-miterlimit:4;stroke-dasharray:none;stroke-dashoffset:0;stroke-opacity:1"
         d="m 58.488277,52.374901 a 5.316792,2.7430313 0 0 1 -5.318359,2.742187 5.316792,2.7430313 0 0 1 -5.316406,-2.742187 5.316792,4.3522949 0 0 0 5.316406,4.351562 5.316792,4.3522949 0 0 0 5.318359,-4.351562 z"
         id="ellipse4203" />
    </g>
    <path
       id="path4313"
       d="M 62.607097,49.4191 57.94613,52.008526"
       style="fill:none;fill-rule:evenodd;stroke:#707751;stroke-width:0.70866144;stroke-linecap:round;stroke-linejoin:miter;stroke-miterlimit:4;stroke-dasharray:none;stroke-opacity:1" />
    <path
       id="path4311"
       d="m 43.704285,49.505414 4.660967,2.762055"
       style="fill:#707751;fill-opacity:1;fill-rule:evenodd;stroke:#757b53;stroke-width:0.70866144;stroke-linecap:round;stroke-linejoin:miter;stroke-miterlimit:4;stroke-dasharray:none;stroke-opacity:1" />
    <g
       transform="translate(22.401904,20.408918)"
       id="g4283">
      <g
         id="g4243">
        <g
           id="g4221">
          <path
             id="path4219"
             d="m 24.428162,29.076599 -1.562571,5.77683"
             style="fill:none;fill-rule:evenodd;stroke:#707751;stroke-width:0.70866144;stroke-linecap:round;stroke-linejoin:miter;stroke-miterlimit:4;stroke-dasharray:none;stroke-opacity:1" />
          <path
             style="fill:none;fill-rule:evenodd;stroke:#919a6c;stroke-width:0.70866144;stroke-linecap:round;stroke-linejoin:miter;stroke-miterlimit:4;stroke-dasharray:none;stroke-opacity:1"
             d="m 21.287015,29.076599 1.562571,5.77683"
             id="path4217" />
        </g>
        <g
           id="g4225">
          <path
             style="fill:none;fill-rule:evenodd;stroke:#707751;stroke-width:0.70866144;stroke-linecap:round;stroke-linejoin:miter;stroke-miterlimit:4;stroke-dasharray:none;stroke-opacity:1"
             d="m 24.428162,29.076599 -1.562571,5.77683"
             id="path4227" />
          <path
             id="path4229"
             d="m 21.287015,29.076599 1.562571,5.77683"
             style="fill:none;fill-rule:evenodd;stroke:#919a6c;stroke-width:0.70866144;stroke-linecap:round;stroke-linejoin:miter;stroke-miterlimit:4;stroke-dasharray:none;stroke-opacity:1" />
        </g>
        <g
           transform="translate(3.1586071,0)"
           id="g4231">
          <path
             id="path4233"
             d="m 24.428162,29.076599 -1.562571,5.77683"
             style="fill:none;fill-rule:evenodd;stroke:#707751;stroke-width:0.70866144;stroke-linecap:round;stroke-linejoin:miter;stroke-miterlimit:4;stroke-dasharray:none;stroke-opacity:1" />
          <path
             style="fill:none;fill-rule:evenodd;stroke:#919a6c;stroke-width:0.70866144;stroke-linecap:round;stroke-linejoin:miter;stroke-miterlimit:4;stroke-dasharray:none;stroke-opacity:1"
             d="m 21.287015,29.076599 1.562571,5.77683"
             id="path4235" />
        </g>
        <g
           id="g4237"
           transform="translate(6.3172142,0)">
          <path
             style="fill:none;fill-rule:evenodd;stroke:#707751;stroke-width:0.70866144;stroke-linecap:round;stroke-linejoin:miter;stroke-miterlimit:4;stroke-dasharray:none;stroke-opacity:1"
             d="m 24.428162,29.076599 -1.562571,5.77683"
             id="path4239" />
          <path
             id="path4241"
             d="m 21.287015,29.076599 1.562571,5.77683"
             style="fill:none;fill-rule:evenodd;stroke:#919a6c;stroke-width:0.70866144;stroke-linecap:round;stroke-linejoin:miter;stroke-miterlimit:4;stroke-dasharray:none;stroke-opacity:1" />
        </g>
      </g>
      <g
         id="g4257"
         transform="translate(9.505063,0)">
        <g
           id="g4259">
          <path
             style="fill:none;fill-rule:evenodd;stroke:#707751;stroke-width:0.70866144;stroke-linecap:round;stroke-linejoin:miter;stroke-miterlimit:4;stroke-dasharray:none;stroke-opacity:1"
             d="m 24.428162,29.076599 -1.562571,5.77683"
             id="path4261" />
          <path
             id="path4263"
             d="m 21.287015,29.076599 1.562571,5.77683"
             style="fill:none;fill-rule:evenodd;stroke:#919a6c;stroke-width:0.70866144;stroke-linecap:round;stroke-linejoin:miter;stroke-miterlimit:4;stroke-dasharray:none;stroke-opacity:1" />
        </g>
        <g
           id="g4265">
          <path
             id="path4267"
             d="m 24.428162,29.076599 -1.562571,5.77683"
             style="fill:none;fill-rule:evenodd;stroke:#707751;stroke-width:0.70866144;stroke-linecap:round;stroke-linejoin:miter;stroke-miterlimit:4;stroke-dasharray:none;stroke-opacity:1" />
          <path
             style="fill:none;fill-rule:evenodd;stroke:#919a6c;stroke-width:0.70866144;stroke-linecap:round;stroke-linejoin:miter;stroke-miterlimit:4;stroke-dasharray:none;stroke-opacity:1"
             d="m 21.287015,29.076599 1.562571,5.77683"
             id="path4269" />
        </g>
        <g
           id="g4271"
           transform="translate(3.1586071,0)">
          <path
             style="fill:none;fill-rule:evenodd;stroke:#707751;stroke-width:0.70866144;stroke-linecap:round;stroke-linejoin:miter;stroke-miterlimit:4;stroke-dasharray:none;stroke-opacity:1"
             d="m 24.428162,29.076599 -1.562571,5.77683"
             id="path4273" />
          <path
             id="path4275"
             d="m 21.287015,29.076599 1.562571,5.77683"
             style="fill:none;fill-rule:evenodd;stroke:#919a6c;stroke-width:0.70866144;stroke-linecap:round;stroke-linejoin:miter;stroke-miterlimit:4;stroke-dasharray:none;stroke-opacity:1" />
        </g>
        <g
           transform="translate(6.3172142,0)"
           id="g4277">
          <path
             id="path4279"
             d="m 24.428162,29.076599 -1.562571,5.77683"
             style="fill:none;fill-rule:evenodd;stroke:#707751;stroke-width:0.70866144;stroke-linecap:round;stroke-linejoin:miter;stroke-miterlimit:4;stroke-dasharray:none;stroke-opacity:1" />
          <path
             style="fill:none;fill-rule:evenodd;stroke:#919a6c;stroke-width:0.70866144;stroke-linecap:round;stroke-linejoin:miter;stroke-miterlimit:4;stroke-dasharray:none;stroke-opacity:1"
             d="m 21.287015,29.076599 1.562571,5.77683"
             id="path4281" />
        </g>
      </g>
    </g>
  </g>
  <g
     style="display:inline"
     id="layer4">
    <circle
       r="21.259842"
       cy="53.149414"
       cx="53.120117"
       id="path4184"
       style="opacity:0.2;fill:#ffffff;fill-opacity:1;stroke:none;stroke-width:0.2;stroke-linecap:round;stroke-linejoin:miter;stroke-miterlimit:4;stroke-dasharray:none;stroke-dashoffset:0;stroke-opacity:1" />
    <path
       id="circle4186"
       transform="translate(-3.8146973e-6,0)"
       d="m 53.121094,33.962891 a 19.187008,19.187008 0 0 0 -19.1875,19.185547 19.187008,19.187008 0 0 0 0.439453,3.970703 19.187008,19.187008 0 0 1 18.748047,-15.15625 19.187008,19.187008 0 0 1 18.746094,15.216797 19.187008,19.187008 0 0 0 0.439453,-4.03125 19.187008,19.187008 0 0 0 -19.185547,-19.185547 z"
       style="opacity:0.2;fill:#ffffff;fill-opacity:1;stroke:none;stroke-width:0.266;stroke-linecap:round;stroke-linejoin:miter;stroke-miterlimit:4;stroke-dasharray:none;stroke-dashoffset:0;stroke-opacity:1" />
  </g>
  <g
     id="breadboard">
    <rect
       y="50.882298"
       x="12.833789"
       height="2.6574802"
       width="2.6574802"
       id="connector0"
       style="display:inline;opacity:1;fill:none;fill-opacity:1;stroke:none;stroke-width:0.70866144;stroke-linecap:round;stroke-linejoin:miter;stroke-miterlimit:4;stroke-dasharray:none;stroke-dashoffset:0;stroke-opacity:1" />
    <rect
       style="display:inline;opacity:1;fill:none;fill-opacity:1;stroke:none;stroke-width:0.70866144;stroke-linecap:round;stroke-linejoin:miter;stroke-miterlimit:4;stroke-dasharray:none;stroke-dashoffset:0;stroke-opacity:1"
       id="connector1"
       width="2.6574802"
       height="2.6574802"
       x="90.833817"
       y="51.234097" />
  </g>
</svg>
